<?xml version="1.0" encoding="UTF-8"?>
<svg xmlns="http://www.w3.org/2000/svg" xmlns:xlink="http://www.w3.org/1999/xlink" viewBox="0 0 35 35" width="35px" height="35px">
<g id="surface43717607">
<path style=" stroke:none;fill-rule:nonzero;fill:rgb(95.294118%,95.294118%,95.294118%);fill-opacity:1;" d="M 3.5 5.601562 C 2.996094 5.59375 2.527344 5.859375 2.269531 6.292969 C 2.015625 6.730469 2.015625 7.269531 2.269531 7.707031 C 2.527344 8.140625 2.996094 8.40625 3.5 8.398438 L 31.5 8.398438 C 32.003906 8.40625 32.472656 8.140625 32.730469 7.707031 C 32.984375 7.269531 32.984375 6.730469 32.730469 6.292969 C 32.472656 5.859375 32.003906 5.59375 31.5 5.601562 Z M 3.5 16.101562 C 2.996094 16.09375 2.527344 16.359375 2.269531 16.792969 C 2.015625 17.230469 2.015625 17.769531 2.269531 18.207031 C 2.527344 18.640625 2.996094 18.90625 3.5 18.898438 L 31.5 18.898438 C 32.003906 18.90625 32.472656 18.640625 32.730469 18.207031 C 32.984375 17.769531 32.984375 17.230469 32.730469 16.792969 C 32.472656 16.359375 32.003906 16.09375 31.5 16.101562 Z M 3.5 26.601562 C 2.996094 26.59375 2.527344 26.859375 2.269531 27.292969 C 2.015625 27.730469 2.015625 28.269531 2.269531 28.707031 C 2.527344 29.140625 2.996094 29.40625 3.5 29.398438 L 31.5 29.398438 C 32.003906 29.40625 32.472656 29.140625 32.730469 28.707031 C 32.984375 28.269531 32.984375 27.730469 32.730469 27.292969 C 32.472656 26.859375 32.003906 26.59375 31.5 26.601562 Z M 3.5 26.601562 "/>
</g>
</svg>
